<?xml version="1.0" encoding="UTF-8"?>
<!DOCTYPE svg PUBLIC "-//W3C//DTD SVG 1.1//EN" "http://www.w3.org/Graphics/SVG/1.1/DTD/svg11.dtd">
<svg version="1.1" xmlns="http://www.w3.org/2000/svg" xmlns:xlink="http://www.w3.org/1999/xlink" width="100" height="100"  xml:space="preserve" id="canvas1">
    <!-- Generated by PaintCode - http://www.paintcodeapp.com -->
    <path id="canvas1-bezier" stroke="none" fill="rgb(128, 128, 128)" d="M 1.5,-97 C 1.5,-97 1.5,-35.9 1.5,-4.77 3.53,-4.13 5,-2.24 5,-0 5,2.24 3.53,4.13 1.5,4.77 1.5,9.91 1.5,13 1.5,13 L -1.5,13 C -1.5,13 -1.5,9.91 -1.5,4.77 -3.53,4.13 -5,2.24 -5,-0 -5,-2.24 -3.53,-4.13 -1.5,-4.77 -1.5,-35.9 -1.5,-97 -1.5,-97 L 1.5,-97 1.5,-97 Z M 1.5,-97" />
</svg>
