<?xml version="1.0" encoding="UTF-8"?>
<!DOCTYPE svg PUBLIC "-//W3C//DTD SVG 1.1//EN" "http://www.w3.org/Graphics/SVG/1.1/DTD/svg11.dtd">
<svg version="1.1" xmlns="http://www.w3.org/2000/svg" xmlns:xlink="http://www.w3.org/1999/xlink" width="100" height="100"  xml:space="preserve" id="canvas1">
    <!-- Generated by PaintCode - http://www.paintcodeapp.com -->
    <path id="canvas1-bezier" stroke="none" fill="rgb(128, 128, 128)" d="M 3,-89 C 3,-89 3,-35.9 3,-6.33 5.37,-5.2 7,-2.79 7,-0 7,2.79 5.37,5.2 3,6.33 3,10.52 3,13 3,13 L -3,13 C -3,13 -3,10.52 -3,6.33 -5.37,5.2 -7,2.79 -7,-0 -7,-2.79 -5.37,-5.2 -3,-6.33 -3,-35.9 -3,-89 -3,-89 L 3,-89 3,-89 Z M 3,-89" />
</svg>
