<?xml version="1.0" encoding="UTF-8"?>
<!DOCTYPE svg PUBLIC "-//W3C//DTD SVG 1.1//EN" "http://www.w3.org/Graphics/SVG/1.1/DTD/svg11.dtd">
<svg version="1.1" xmlns="http://www.w3.org/2000/svg" xmlns:xlink="http://www.w3.org/1999/xlink" width="240" height="120"  xml:space="preserve" id="canvas1">
    <!-- Generated by PaintCode - http://www.paintcodeapp.com -->
    <path id="canvas1-bezier" stroke="none" fill="rgb(128, 128, 128)" d="M 0.8,-95 C 0.8,-95 0.8,-41.91 0.8,-11.59 L 2,-11.59 2,4.88 0.8,4.88 C 0.8,7.51 0.8,9 0.8,9 L -0.8,9 C -0.8,9 -0.8,7.51 -0.8,4.88 L -2,4.88 C -2,4.88 -2,-3.88 -2,-8.62 -2,-10.39 -2,-11.59 -2,-11.59 L -0.8,-11.59 C -0.8,-36.57 -0.8,-77 -0.8,-90.47 -0.8,-93.35 -0.8,-95 -0.8,-95 L 0.8,-95 0.8,-95 Z M 0.8,-95" />
</svg>
