<?xml version="1.0" encoding="UTF-8"?>
<!DOCTYPE svg PUBLIC "-//W3C//DTD SVG 1.1//EN" "http://www.w3.org/Graphics/SVG/1.1/DTD/svg11.dtd">
<svg version="1.1" xmlns="http://www.w3.org/2000/svg" xmlns:xlink="http://www.w3.org/1999/xlink" width="240" height="360"  xml:space="preserve" id="canvas1">
    <!-- Generated by PaintCode - http://www.paintcodeapp.com -->
    <path id="canvas1-secondHand" stroke="none" fill="rgb(20, 20, 19)" d="M -0.18,-291.2 C -0.29,-291.2 -0.41,-291.19 -0.52,-291.18 -1.01,-291.14 -1.49,-291.01 -1.93,-290.8 -2.21,-290.67 -2.48,-290.5 -2.72,-290.3 -3.34,-289.8 -3.78,-289.14 -4.09,-288.47 -4.24,-288.14 -4.35,-287.8 -4.45,-287.48 -4.49,-287.31 -4.54,-287.14 -4.57,-286.98 -4.58,-286.91 -4.6,-286.85 -4.61,-286.77 -4.61,-286.77 -4.65,-286.58 -4.67,-286.49 -4.87,-285.14 -4.51,-283.88 -3.81,-282.93 -3.45,-282.46 -3.03,-282.07 -2.56,-281.76 -2.33,-281.6 -2.09,-281.46 -1.84,-281.35 L -1.47,-281.2 -1.33,-281.14 C -1.33,-281.14 -1.17,-281.09 -1.07,-281.06 -0.97,-281.04 -0.87,-281.01 -0.87,-281.01 L -0.67,-280.97 C -0.53,-280.94 -0.4,-280.92 -0.26,-280.9 L -0.17,-280.89 C 0.07,-280.86 0.31,-280.87 0.56,-280.88 1.11,-280.9 1.66,-281.02 2.19,-281.24 2.73,-281.46 3.23,-281.78 3.68,-282.19 3.9,-282.39 4.11,-282.61 4.3,-282.86 4.39,-282.99 4.48,-283.12 4.56,-283.25 L 4.67,-283.42 C 4.67,-283.42 4.75,-283.61 4.79,-283.69 4.85,-283.79 4.9,-283.9 4.9,-283.9 L 4.99,-284.13 C 5.05,-284.29 5.11,-284.44 5.15,-284.61 5.24,-284.93 5.29,-285.27 5.31,-285.61 5.35,-286.3 5.26,-287.03 5,-287.72 4.5,-289.1 3.34,-290.32 1.84,-290.86 1.2,-291.1 0.51,-291.21 -0.18,-291.2 Z M 0.5,-326.75 C 0.5,-326.75 0.5,-326.26 0.51,-326 0.51,-325.7 0.52,-325.39 0.52,-325.08 0.61,-319.64 0.69,-314.19 0.78,-308.74 0.82,-305.56 0.87,-302.38 0.92,-299.2 0.94,-297.9 0.95,-294.05 0.96,-292.35 1.38,-292.33 1.8,-292.27 2.22,-292.17 3.83,-291.79 5.35,-290.78 6.34,-289.31 7.34,-287.83 7.8,-285.94 7.4,-283.97 L 7.34,-283.7 7.24,-283.32 C 7.16,-283.08 7.08,-282.86 6.99,-282.63 6.8,-282.18 6.56,-281.74 6.28,-281.33 5.71,-280.52 4.97,-279.82 4.1,-279.29 3.24,-278.76 2.25,-278.42 1.23,-278.28 L -0.17,-278.24 -0.31,-278.25 C -0.57,-278.27 -0.83,-278.3 -1.08,-278.35 L -1.46,-278.43 -1.88,-278.55 -2.15,-278.64 -2.55,-278.79 C -2.79,-278.9 -3.02,-279 -3.25,-279.13 -3.7,-279.39 -4.12,-279.68 -4.51,-280.02 -5.28,-280.7 -5.89,-281.53 -6.3,-282.45 -7.14,-284.27 -7.18,-286.38 -6.5,-288.14 -6.49,-288.18 -6.37,-288.43 -6.37,-288.43 -6.32,-288.54 -6.27,-288.67 -6.21,-288.78 -6.09,-288.99 -5.98,-289.19 -5.84,-289.38 -5.58,-289.77 -5.27,-290.11 -4.92,-290.41 -4.75,-290.56 -4.58,-290.7 -4.39,-290.83 -3.84,-291.22 -3.25,-291.51 -2.65,-291.73 -2.03,-291.96 -1.41,-292.11 -0.78,-292.22 -0.81,-293.56 -0.69,-294.95 -0.67,-296.29 -0.65,-297.88 -0.62,-299.47 -0.6,-301.06 -0.55,-304.06 -0.51,-307.06 -0.47,-310.06 -0.39,-315.37 -0.3,-320.69 -0.22,-326.01 -0.22,-326.26 -0.21,-326.75 -0.21,-326.75 L 0.5,-326.75 0.5,-326.75 Z M 1.13,-236.43 C 1.18,-233.18 1.23,-229.85 1.27,-226.45 1.5,-226.51 1.72,-226.58 1.93,-226.67 2.47,-226.89 2.97,-227.21 3.41,-227.61 3.64,-227.82 3.85,-228.04 4.04,-228.29 4.13,-228.42 4.22,-228.55 4.3,-228.68 L 4.41,-228.85 C 4.41,-228.85 4.49,-229.03 4.53,-229.12 4.58,-229.22 4.64,-229.33 4.64,-229.33 L 4.73,-229.56 C 4.79,-229.71 4.84,-229.87 4.89,-230.03 4.97,-230.36 5.03,-230.7 5.05,-231.04 5.09,-231.73 5,-232.46 4.74,-233.15 4.24,-234.53 3.08,-235.75 1.57,-236.29 1.43,-236.34 1.28,-236.39 1.13,-236.43 Z M -0.82,-236.61 C -1.61,-236.53 -2.38,-236.22 -2.98,-235.73 -3.6,-235.22 -4.05,-234.56 -4.35,-233.9 -4.5,-233.57 -4.61,-233.23 -4.71,-232.9 -4.75,-232.74 -4.8,-232.57 -4.83,-232.41 -4.84,-232.34 -4.86,-232.28 -4.88,-232.2 -4.88,-232.2 -4.92,-232.01 -4.94,-231.92 -5.13,-230.57 -4.78,-229.31 -4.07,-228.36 -3.71,-227.89 -3.29,-227.49 -2.82,-227.19 -2.59,-227.03 -2.35,-226.89 -2.1,-226.78 L -1.73,-226.62 -1.59,-226.57 C -1.59,-226.57 -1.42,-226.52 -1.33,-226.49 -1.23,-226.47 -1.13,-226.44 -1.13,-226.44 -1.13,-226.44 -1.03,-226.42 -0.97,-226.41 -0.92,-229.88 -0.87,-233.29 -0.82,-236.61 Z M 0.5,-278.09 C 0.5,-278.1 0.51,-277.6 0.51,-277.35 0.68,-267.16 0.88,-253.41 1.11,-237.75 1.39,-237.72 1.68,-237.67 1.95,-237.6 3.57,-237.21 5.09,-236.21 6.08,-234.73 7.07,-233.26 7.54,-231.37 7.14,-229.4 L 7.08,-229.13 6.98,-228.75 C 6.9,-228.51 6.82,-228.29 6.73,-228.06 6.53,-227.61 6.3,-227.17 6.02,-226.76 5.45,-225.95 4.7,-225.25 3.84,-224.72 3.07,-224.25 2.21,-223.92 1.31,-223.76 2.27,-157.4 3.46,-68.15 3.46,-60.99 3.46,-53.8 3.01,-24.51 3.05,-20.87 3.11,-16.05 3.2,-11.23 3.2,-6.41 3.2,5.53 -0.09,15.2 -0.09,15.2 -0.09,15.2 -3.39,5.52 -3.39,-6.41 -3.39,-11.23 -3.3,-16.05 -3.24,-20.86 -3.21,-23.61 -3.12,-53.82 -3.13,-60.99 -3.13,-68.15 -1.95,-157.36 -1.01,-223.72 -1.12,-223.74 -1.23,-223.75 -1.34,-223.77 L -1.72,-223.86 -2.14,-223.98 -2.41,-224.07 -2.81,-224.22 C -3.06,-224.32 -3.29,-224.43 -3.51,-224.56 -3.96,-224.81 -4.38,-225.11 -4.77,-225.44 -5.54,-226.13 -6.15,-226.96 -6.56,-227.88 -7.4,-229.69 -7.44,-231.81 -6.76,-233.57 -6.75,-233.6 -6.63,-233.86 -6.63,-233.86 -6.58,-233.97 -6.53,-234.09 -6.47,-234.21 -6.36,-234.42 -6.24,-234.62 -6.1,-234.81 -5.84,-235.19 -5.53,-235.54 -5.18,-235.84 -4.5,-236.45 -3.7,-236.87 -2.91,-237.16 -2.29,-237.38 -1.67,-237.53 -1.04,-237.64 -1.07,-238.98 -0.95,-240.38 -0.93,-241.71 -0.91,-243.3 -0.88,-244.89 -0.86,-246.48 -0.82,-249.48 -0.77,-252.49 -0.73,-255.48 -0.65,-260.8 -0.56,-266.12 -0.48,-271.43 -0.48,-271.69 -0.47,-272.17 -0.47,-272.17 -0.47,-272.17 -0.4,-272.17 -0.3,-272.17 -0.27,-273.99 -0.24,-275.71 -0.22,-277.35 -0.21,-277.6 -0.2,-278.09 -0.2,-278.09 -0.03,-278.09 0.5,-278.1 0.5,-278.1 L 0.5,-278.09 Z M 0.5,-278.09" />
</svg>
