<?xml version="1.0" encoding="UTF-8"?>
<!DOCTYPE svg PUBLIC "-//W3C//DTD SVG 1.1//EN" "http://www.w3.org/Graphics/SVG/1.1/DTD/svg11.dtd">
<svg version="1.1" xmlns="http://www.w3.org/2000/svg" xmlns:xlink="http://www.w3.org/1999/xlink" width="240" height="178"  xml:space="preserve" id="canvas1">
    <!-- Generated by PaintCode - http://www.paintcodeapp.com -->
    <path id="canvas1-hourHand" stroke="none" fill="rgb(26, 25, 25)" d="M 0.08,-168.9 C 0.08,-168.9 4.82,-154.98 4.82,-137.8 4.82,-126.69 2.84,-116.95 1.44,-111.45 3.24,-112.24 5.17,-112.94 6.42,-112.94 9.27,-112.94 11.58,-111.29 11.58,-109.25 11.58,-107.21 9.27,-105.56 6.42,-105.56 5.34,-105.56 3.73,-106.08 2.15,-106.74 3.8,-103.33 6.1,-99.4 8.47,-101.62 9.89,-102.82 13.58,-106.12 14.95,-109.06 16.62,-112.03 15.98,-114.64 15.68,-115.19 13.32,-117.2 23.02,-112.65 22.09,-113.29 22.07,-113.24 22.12,-113.26 22.12,-113.26 24.62,-112.97 24.25,-110.31 19.06,-106.44 16.39,-104.29 12.06,-101.72 9.03,-100.03 10.36,-100.54 11.77,-100.84 13.21,-100.92 16.52,-101.1 20.01,-100.03 22.75,-97.77 25.5,-95.54 27.47,-92.06 27.82,-88.23 27.99,-86.34 27.79,-84.32 27.17,-82.44 26.55,-80.55 25.51,-78.78 24.16,-77.28 21.46,-74.25 17.34,-72.41 13.21,-72.45 12.61,-72.45 12,-72.5 11.41,-72.57 14.08,-71.03 17.09,-69.15 19.11,-67.51 24.3,-63.65 24.6,-60.96 22.1,-60.64 23.03,-61.27 13.43,-56.76 15.77,-58.84 16.07,-59.42 16.68,-62.06 14.97,-65.04 13.57,-67.98 9.83,-71.28 8.38,-72.47 6.04,-74.65 3.77,-70.72 2.15,-67.3 3.69,-67.93 5.23,-68.44 6.28,-68.44 9.14,-68.44 11.45,-66.78 11.45,-64.74 11.45,-62.71 9.14,-61.05 6.28,-61.05 5.04,-61.05 3.1,-61.75 1.31,-62.54 2.71,-57.04 4.7,-47.3 4.7,-36.19 4.7,-19.01 -0.03,5.61 -0.03,5.61 -0.03,5.61 -4.78,-19.01 -4.78,-36.18 -4.78,-47.29 -2.8,-57.04 -1.4,-62.54 -3.19,-61.75 -5.13,-61.05 -6.37,-61.05 -9.23,-61.05 -11.54,-62.7 -11.54,-64.74 -11.54,-66.78 -9.23,-68.43 -6.37,-68.43 -5.29,-68.43 -3.69,-67.9 -2.11,-67.25 -3.75,-70.66 -6.06,-74.59 -8.42,-72.37 -9.85,-71.17 -13.54,-67.87 -14.91,-64.93 -16.58,-61.96 -15.93,-59.35 -15.63,-58.8 -13.28,-56.79 -22.98,-61.34 -22.05,-60.7 -22.02,-60.75 -22.08,-60.73 -22.08,-60.73 -24.58,-61.02 -24.21,-63.68 -19.01,-67.55 -16.72,-69.4 -13.19,-71.57 -10.31,-73.21 -11.83,-72.7 -13.42,-72.43 -15.02,-72.45 -19.15,-72.42 -23.25,-74.34 -25.83,-77.41 -28.48,-80.42 -29.76,-84.45 -29.45,-88.22 -29.45,-88.3 -29.37,-88.85 -29.37,-88.85 -29.34,-89.09 -29.31,-89.36 -29.26,-89.61 -29.16,-90.08 -29.05,-90.53 -28.9,-90.98 -28.61,-91.86 -28.21,-92.71 -27.72,-93.48 -26.75,-95.03 -25.47,-96.29 -24.11,-97.3 -21.39,-99.27 -18.43,-100.76 -14.99,-100.92 -11.75,-101.09 -8.21,-100.03 -5.48,-97.76 -3.28,-95.95 -1.6,-93.43 -0.83,-90.45 -0.78,-90.62 -0.73,-90.8 -0.67,-90.98 -0.38,-91.87 0.03,-92.71 0.51,-93.48 1.48,-95.03 2.77,-96.29 4.12,-97.3 4.52,-97.6 4.93,-97.87 5.33,-98.14 3.61,-97.93 1.42,-103.54 0.35,-107.53 0.19,-107 0.09,-106.71 0.09,-106.71 0.09,-106.71 -0.01,-107 -0.18,-107.54 -0.23,-107.52 -0.28,-107.49 -0.34,-107.47 -1.46,-103.28 -3.7,-97.37 -5.49,-98.24 -5.16,-98 -14.56,-102.82 -19.06,-106.48 -24.26,-110.34 -24.55,-113.03 -22.05,-113.35 -22.09,-113.33 -22.04,-113.31 -22.04,-113.31 -22.99,-112.72 -13.38,-117.23 -15.73,-115.15 -16.02,-114.57 -16.64,-111.93 -14.93,-108.95 -13.52,-106.01 -9.78,-102.71 -8.34,-101.52 -6,-99.34 -3.73,-103.27 -2.1,-106.69 -3.64,-106.05 -5.19,-105.55 -6.24,-105.55 -9.09,-105.55 -11.41,-107.21 -11.41,-109.24 -11.41,-111.28 -9.09,-112.94 -6.24,-112.94 -5,-112.94 -3.06,-112.24 -1.27,-111.45 -2.67,-116.95 -4.65,-126.69 -4.65,-137.8 -4.66,-154.98 0.08,-168.9 0.08,-168.9 L 0.08,-168.9 Z M -18.91,-97.59 C -20.14,-97.11 -21.24,-96.25 -21.97,-95.16 -22.71,-94.07 -23.11,-92.82 -23.27,-91.63 -23.35,-91.03 -23.38,-90.45 -23.38,-89.88 -23.37,-89.6 -23.37,-89.31 -23.34,-89.05 -23.33,-88.93 -23.32,-88.83 -23.31,-88.7 -23.31,-88.7 -23.29,-88.37 -23.27,-88.22 L -23.26,-88.14 C -22.95,-86 -21.8,-84.16 -20.24,-83 -18.64,-81.85 -16.84,-81.32 -15.03,-81.33 -11.48,-81.34 -7.77,-83.81 -6.99,-88.24 -6.96,-88.32 -6.95,-88.42 -6.95,-88.42 L -6.92,-88.62 -6.88,-89.03 C -6.86,-89.3 -6.85,-89.57 -6.85,-89.85 -6.87,-90.4 -6.94,-90.96 -7.06,-91.52 -7.33,-92.62 -7.81,-93.74 -8.54,-94.7 -10.01,-96.66 -12.36,-98.04 -15.06,-98.18 -16.3,-98.27 -17.69,-98.07 -18.91,-97.59 Z M 9.32,-97.6 C 8.09,-97.11 7,-96.25 6.26,-95.17 5.52,-94.08 5.12,-92.83 4.96,-91.64 4.88,-91.04 4.85,-90.45 4.86,-89.89 4.87,-89.6 4.87,-89.32 4.89,-89.05 4.91,-88.93 4.91,-88.84 4.92,-88.7 4.92,-88.7 4.95,-88.38 4.96,-88.22 L 4.98,-88.15 C 5.28,-86 6.44,-84.16 7.99,-83 9.59,-81.85 11.39,-81.32 13.21,-81.33 15.02,-81.35 16.79,-81.96 18.29,-83.15 19.75,-84.34 20.91,-86.09 21.26,-88.22 21.64,-90.33 21.16,-92.75 19.69,-94.71 18.24,-96.66 15.84,-98.04 13.21,-98.19 11.9,-98.28 10.56,-98.07 9.32,-97.6 Z M -0.78,-83.49 C -0.87,-83.13 -0.95,-82.78 -1.06,-82.44 -1.69,-80.55 -2.72,-78.78 -4.08,-77.27 L -5.8,-75.67 C -5.6,-75.77 -5.5,-75.81 -5.55,-75.78 -3.79,-76.64 -1.43,-70.65 -0.31,-66.46 -0.14,-66.99 -0.05,-67.28 -0.05,-67.28 -0.05,-67.28 0.05,-66.99 0.22,-66.45 0.27,-66.47 0.33,-66.5 0.38,-66.52 1.27,-69.86 2.88,-74.29 4.4,-75.51 3.67,-76.08 2.99,-76.71 2.4,-77.41 0.85,-79.17 -0.21,-81.29 -0.78,-83.49 Z M -0.78,-83.49" />
</svg>
