<?xml version="1.0" encoding="UTF-8"?>
<!DOCTYPE svg PUBLIC "-//W3C//DTD SVG 1.1//EN" "http://www.w3.org/Graphics/SVG/1.1/DTD/svg11.dtd">
<svg version="1.1" xmlns="http://www.w3.org/2000/svg" xmlns:xlink="http://www.w3.org/1999/xlink" width="237" height="281"  xml:space="preserve" id="canvas1">
    <!-- Generated by PaintCode - http://www.paintcodeapp.com -->
    <path id="canvas1-minuteHand" stroke="none" fill="rgb(20, 20, 19)" d="M 0.83,-269.09 C 0.85,-269.02 0.86,-268.94 0.86,-268.86 L 0.86,-258.11 C 1.83,-254.25 3.16,-247.59 3.16,-240.02 3.16,-232.29 1.78,-225.52 0.81,-221.7 2.06,-222.25 3.41,-222.73 4.27,-222.74 6.26,-222.74 7.86,-221.59 7.87,-220.17 7.87,-218.75 6.26,-217.6 4.27,-217.6 3.52,-217.6 2.41,-217.97 1.31,-218.43 2.45,-216.06 4.06,-213.33 5.7,-214.86 6.69,-215.7 9.26,-218 10.21,-220.04 11.37,-222.11 10.92,-223.92 10.71,-224.3 9.07,-225.7 15.82,-222.54 15.17,-222.98 15.19,-222.94 15.2,-222.95 15.2,-222.95 16.93,-222.76 16.67,-220.91 13.06,-218.22 11.21,-216.72 8.2,-214.94 6.09,-213.76 7.01,-214.11 7.99,-214.33 8.99,-214.38 11.3,-214.5 13.72,-213.77 15.63,-212.19 17.54,-210.62 18.91,-208.28 19.16,-205.5 L 19.19,-205.11 19.19,-204.56 C 19.19,-204.21 19.17,-203.88 19.13,-203.54 19.06,-202.87 18.92,-202.19 18.7,-201.53 18.27,-200.22 17.55,-198.99 16.61,-197.95 15.66,-196.9 14.49,-196.05 13.18,-195.46 12.53,-195.17 11.83,-194.96 11.13,-194.81 10.78,-194.73 10.43,-194.68 10.07,-194.64 L 9.53,-194.6 8.92,-194.59 C 8.92,-194.59 8.64,-194.6 8.56,-194.6 8.53,-194.6 7.94,-194.65 7.94,-194.65 7.87,-194.66 7.8,-194.67 7.73,-194.68 8.11,-194.46 8.33,-194.34 8.54,-194.21 10.18,-193.24 11.89,-192.14 13.1,-191.16 16.71,-188.47 16.92,-186.6 15.18,-186.38 15.21,-186.4 15.2,-186.42 15.2,-186.42 15.83,-186.82 9.15,-183.68 10.78,-185.13 10.99,-185.53 11.42,-187.36 10.23,-189.43 9.83,-190.27 9.16,-191.14 8.44,-191.94 7.4,-193.1 6.24,-194.11 5.64,-194.61 4.01,-196.12 2.44,-193.39 1.31,-191.01 2.38,-191.45 3.45,-191.8 4.18,-191.8 6.17,-191.8 7.78,-190.65 7.78,-189.23 7.78,-187.81 6.17,-186.66 4.19,-186.66 3.32,-186.66 1.98,-187.15 0.73,-187.7 1.7,-183.88 3.08,-177.1 3.09,-169.38 3.09,-164.45 2.53,-150.22 1.88,-135.21 2.06,-128.48 2.21,-121.76 2.34,-115.04 L 2.62,-95.5 2.77,-75.96 C 2.77,-75.96 2.78,-67.73 2.79,-61.96 2.8,-58.83 2.8,-56.43 2.8,-56.43 L 2.75,-46.66 C 2.74,-43.4 2.71,-40.15 2.63,-36.89 2.4,-23.87 2.01,-10.84 1.05,2.18 1.03,2.52 0.85,2.81 0.6,3 L -0.73,3 C -0.98,2.81 -1.15,2.52 -1.18,2.18 -2.14,-10.84 -2.54,-23.86 -2.78,-36.89 -2.86,-40.15 -2.89,-43.4 -2.91,-46.66 L -2.96,-56.43 -2.94,-75.96 -2.8,-95.5 -2.53,-115.04 C -2.43,-120.84 -2.3,-126.64 -2.15,-132.44 -2.87,-148.44 -3.5,-164.15 -3.5,-169.38 -3.5,-177.11 -2.13,-183.88 -1.15,-187.7 -2.4,-187.15 -3.75,-186.66 -4.61,-186.66 -6.6,-186.66 -8.21,-187.81 -8.21,-189.23 -8.21,-190.64 -6.6,-191.79 -4.61,-191.79 -3.86,-191.79 -2.75,-191.43 -1.65,-190.97 -2.79,-193.34 -4.4,-196.07 -6.04,-194.53 -7.03,-193.7 -9.6,-191.4 -10.55,-189.36 -11.71,-187.29 -11.26,-185.48 -11.05,-185.1 -9.42,-183.7 -16.16,-186.86 -15.51,-186.42 -15.53,-186.46 -15.54,-186.44 -15.54,-186.44 -17.27,-186.64 -17.01,-188.49 -13.4,-191.18 -11.81,-192.47 -9.35,-193.97 -7.35,-195.12 -8.41,-194.76 -9.52,-194.57 -10.63,-194.58 -13.5,-194.57 -16.35,-195.9 -18.14,-198.03 -19.98,-200.13 -20.88,-202.93 -20.66,-205.54 -20.66,-205.6 -20.61,-205.99 -20.61,-205.99 -20.58,-206.15 -20.56,-206.34 -20.53,-206.51 -20.46,-206.84 -20.38,-207.15 -20.28,-207.46 -20.08,-208.08 -19.8,-208.66 -19.46,-209.2 -18.78,-210.28 -17.89,-211.16 -16.95,-211.86 -16,-212.56 -15.01,-213.14 -13.96,-213.59 -12.92,-214.05 -11.79,-214.31 -10.63,-214.38 -8.33,-214.5 -5.9,-213.76 -4,-212.18 -2.46,-210.94 -1.29,-209.13 -0.75,-207.08 -0.72,-207.21 -0.69,-207.34 -0.65,-207.47 -0.45,-208.09 -0.17,-208.67 0.17,-209.21 0.85,-210.29 1.74,-211.16 2.68,-211.87 2.98,-212.09 3.3,-212.28 3.61,-212.48 2.4,-212.12 0.82,-216.14 0.06,-218.98 -0.06,-218.61 -0.13,-218.4 -0.13,-218.4 -0.13,-218.4 -0.2,-218.61 -0.31,-218.98 L -0.42,-218.93 C -1.2,-216.02 -2.76,-211.91 -4,-212.52 -3.77,-212.35 -10.31,-215.7 -13.44,-218.24 -17.05,-220.92 -17.26,-222.8 -15.52,-223.02 -15.55,-222.99 -15.54,-222.98 -15.54,-222.98 -16.17,-222.58 -9.49,-225.72 -11.12,-224.27 -11.33,-223.86 -11.76,-222.03 -10.57,-219.96 -9.59,-217.91 -6.99,-215.62 -5.98,-214.79 -4.36,-213.28 -2.78,-216.01 -1.65,-218.39 -2.72,-217.95 -3.79,-217.6 -4.53,-217.6 -6.51,-217.6 -8.12,-218.75 -8.12,-220.16 -8.12,-221.58 -6.51,-222.73 -4.53,-222.73 -3.66,-222.73 -2.32,-222.25 -1.07,-221.7 -2.04,-225.52 -3.42,-232.3 -3.43,-240.02 -3.43,-247.6 -2.11,-254.25 -1.14,-258.11 L -1.14,-268.86 C -1.14,-269.41 -0.69,-269.86 -0.14,-269.86 0.33,-269.86 0.73,-269.53 0.83,-269.09 Z M 6.3,-212.07 C 5.44,-211.73 4.68,-211.13 4.17,-210.38 3.65,-209.62 3.38,-208.75 3.26,-207.93 3.21,-207.51 3.19,-207.1 3.19,-206.71 3.2,-206.51 3.2,-206.31 3.21,-206.13 3.23,-206.05 3.23,-205.98 3.24,-205.89 3.24,-205.89 3.25,-205.66 3.26,-205.55 L 3.27,-205.5 C 3.48,-204.01 4.29,-202.73 5.37,-201.93 5.92,-201.53 6.52,-201.22 7.13,-201.04 7.43,-200.94 7.74,-200.87 8.05,-200.83 L 8.52,-200.78 8.69,-200.77 C 8.69,-200.77 8.76,-200.77 8.83,-200.77 8.91,-200.76 9,-200.76 9,-200.76 9.12,-200.77 9.24,-200.77 9.24,-200.77 L 9.47,-200.79 C 9.63,-200.81 9.78,-200.82 9.94,-200.85 10.25,-200.9 10.55,-200.99 10.85,-201.09 11.44,-201.29 12.01,-201.61 12.53,-202.03 13.04,-202.44 13.49,-202.95 13.85,-203.55 14.03,-203.84 14.19,-204.16 14.31,-204.5 14.37,-204.66 14.43,-204.84 14.47,-205.01 L 14.54,-205.23 C 14.54,-205.23 14.57,-205.46 14.59,-205.57 14.61,-205.7 14.63,-205.83 14.63,-205.83 L 14.66,-206.12 C 14.67,-206.3 14.68,-206.5 14.68,-206.69 14.67,-207.07 14.62,-207.46 14.53,-207.85 14.35,-208.62 14.01,-209.39 13.5,-210.06 12.5,-211.42 10.82,-212.38 8.99,-212.48 8.08,-212.54 7.16,-212.4 6.3,-212.07 Z M -13.33,-212.06 C -14.19,-211.73 -14.95,-211.13 -15.46,-210.37 -15.97,-209.62 -16.25,-208.75 -16.36,-207.92 -16.42,-207.5 -16.44,-207.1 -16.44,-206.71 -16.43,-206.51 -16.43,-206.31 -16.41,-206.12 -16.4,-206.04 -16.4,-205.97 -16.39,-205.88 -16.39,-205.88 -16.37,-205.65 -16.37,-205.55 L -16.35,-205.49 C -16.14,-204 -15.34,-202.73 -14.26,-201.92 -13.14,-201.12 -11.89,-200.75 -10.63,-200.76 -9.37,-200.77 -8.14,-201.19 -7.1,-202.02 -6.08,-202.85 -5.28,-204.07 -5.04,-205.55 -4.77,-207.02 -5.1,-208.7 -6.13,-210.06 -7.13,-211.41 -8.8,-212.37 -10.63,-212.48 -11.54,-212.54 -12.47,-212.39 -13.33,-212.06 Z M -0.73,-202.26 C -0.79,-202.01 -0.85,-201.77 -0.93,-201.53 -1.36,-200.22 -2.07,-198.99 -3.02,-197.94 -3.34,-197.58 -3.7,-197.25 -4.07,-196.94 -4.08,-196.89 -4.01,-196.92 -4.04,-196.9 -2.82,-197.5 -1.18,-193.33 -0.4,-190.42 -0.29,-190.78 -0.21,-191 -0.21,-191 -0.21,-191 -0.15,-190.79 -0.03,-190.41 0.01,-190.43 0.05,-190.45 0.08,-190.47 0.7,-192.8 1.83,-195.88 2.89,-196.71 2.38,-197.11 1.9,-197.55 1.48,-198.04 0.41,-199.26 -0.33,-200.73 -0.73,-202.26 Z M -0.73,-202.26" />
</svg>
