<svg xmlns="http://www.w3.org/2000/svg"><symbol id="MinimalHole--hourhand" viewBox="0 0 240 120"><path d="M1.5-60h-3v8h3v-8zM4-65v75h-8v-75h8zm0 0"/></symbol><symbol id="MinimalHole-minutehand" viewBox="0 0 240 120"><path d="M1.5-83.7h-3v9.68h3v-9.68zM3-88V12h-6V-88h6zm0 0"/></symbol><symbol id="MinimalHole-secondhand" viewBox="0 0 240 120"><path d="M-1-92h2V3h-2z"/></symbol><symbol id="boxee-HourHand" viewBox="0 0 100 100" style="enable-background:new 0 0 100 100" xml:space="preserve"><path d="M48.5 80h3V20h-3v60z" style="fill:gray"/></symbol><symbol id="boxee-HourHand1" viewBox="0 0 100 100"><path d="M-1.5 11h3v-60h-3v60zm0 0"/></symbol><symbol id="boxee-MinuteHand" viewBox="0 0 100 100"><path d="M1.5-97v92.23a5 5 0 0 1 0 9.54V13h-3V4.77a5 5 0 0 1 0-9.54V-97h3zm0 0"/></symbol><symbol id="cutout-HourHand" viewBox="0 0 100 100"><path d="M7-56H-7V0H7v-56zm93 56c0 55.23-44.77 100-100 100S-100 55.23-100 0-55.23-100 0-100 100-55.23 100 0zm0 0"/></symbol><symbol id="fatBoxee-MinuteHand" viewBox="0 0 100 100"><path d="M3-89v82.67A7.007 7.007 0 0 1 3 6.33V13h-6V6.33A7.007 7.007 0 0 1-3-6.33V-89h6zm0 0"/></symbol><symbol id="railclock-hourhand" viewBox="0 0 240 120"><path d="M-5 10H5L3-54h-6l-2 64zm0 0"/></symbol><symbol id="railclock-minutehand" viewBox="0 0 1024 1024"><path d="M-20.02 40.02h40l-10-465h-20l-10 465zm0 0"/><circle cx="-19.5" cy="40.5" r=".5"/></symbol><symbol id="railclock-minutehandForIcon" viewBox="0 0 1024 1024"><circle cx=".5" cy=".5" r=".5"/><path d="M-19 40h40L11-425H-9L-19 40zm0 0"/></symbol><symbol id="railclosk-secondhand" viewBox="0 0 240 120"><path d="M.8-95v83.41H2V4.88H.8V9H-.8V4.88H-2v-16.47h1.2V-95H.8zm0 0"/></symbol><symbol id="roman-hourhand" viewBox="0 0 240 178"><path d="M.08-168.9s4.74 13.92 4.74 31.1c0 11.11-1.98 20.85-3.38 26.35 1.8-.79 3.73-1.49 4.98-1.49 2.85 0 5.16 1.65 5.16 3.69s-2.31 3.69-5.16 3.69c-1.08 0-2.69-.52-4.27-1.18 1.65 3.41 3.95 7.34 6.32 5.12 1.42-1.2 5.11-4.5 6.48-7.44 1.67-2.97 1.03-5.58.73-6.13-2.36-2.01 7.34 2.54 6.41 1.9-.02.05.03.03.03.03 2.5.29 2.13 2.95-3.06 6.82-2.67 2.15-7 4.72-10.03 6.41 1.33-.51 2.74-.81 4.18-.89 3.31-.18 6.8.89 9.54 3.15 2.75 2.23 4.72 5.71 5.07 9.54.17 1.89-.03 3.91-.65 5.79-.62 1.89-1.66 3.66-3.01 5.16-2.7 3.03-6.82 4.87-10.95 4.83-.6 0-1.21-.05-1.8-.12 2.67 1.54 5.68 3.42 7.7 5.06 5.19 3.86 5.49 6.55 2.99 6.87.93-.63-8.67 3.88-6.33 1.8.3-.58.91-3.22-.8-6.2-1.4-2.94-5.14-6.24-6.59-7.43-2.34-2.18-4.61 1.75-6.23 5.17 1.54-.63 3.08-1.14 4.13-1.14 2.86 0 5.17 1.66 5.17 3.7 0 2.03-2.31 3.69-5.17 3.69-1.24 0-3.18-.7-4.97-1.49 1.4 5.5 3.39 15.24 3.39 26.35 0 17.18-4.73 41.8-4.73 41.8s-4.75-24.62-4.75-41.79c0-11.11 1.98-20.86 3.38-26.36-1.79.79-3.73 1.49-4.97 1.49-2.86 0-5.17-1.65-5.17-3.69s2.31-3.69 5.17-3.69c1.08 0 2.68.53 4.26 1.18-1.64-3.41-3.95-7.34-6.31-5.12-1.43 1.2-5.12 4.5-6.49 7.44-1.67 2.97-1.02 5.58-.72 6.13 2.35 2.01-7.35-2.54-6.42-1.9.03-.05-.03-.03-.03-.03-2.5-.29-2.13-2.95 3.07-6.82 2.29-1.85 5.82-4.02 8.7-5.66-1.52.51-3.11.78-4.71.76-4.13.03-8.23-1.89-10.81-4.96-2.65-3.01-3.93-7.04-3.62-10.81 0-.08.08-.63.08-.63.03-.24.06-.51.11-.76.1-.47.21-.92.36-1.37.29-.88.69-1.73 1.18-2.5.97-1.55 2.25-2.81 3.61-3.82 2.72-1.97 5.68-3.46 9.12-3.62 3.24-.17 6.78.89 9.51 3.16 2.2 1.81 3.88 4.33 4.65 7.31.05-.17.1-.35.16-.53.29-.89.7-1.73 1.18-2.5.97-1.55 2.26-2.81 3.61-3.82.4-.3.81-.57 1.21-.84-1.72.21-3.91-5.4-4.98-9.39-.16.53-.26.82-.26.82s-.1-.29-.27-.83c-.05.02-.1.05-.16.07-1.12 4.19-3.36 10.1-5.15 9.23.33.24-9.07-4.58-13.57-8.24-5.2-3.86-5.49-6.55-2.99-6.87-.04.02.01.04.01.04-.95.59 8.66-3.92 6.31-1.84-.29.58-.91 3.22.8 6.2 1.41 2.94 5.15 6.24 6.59 7.43 2.34 2.18 4.61-1.75 6.24-5.17-1.54.64-3.09 1.14-4.14 1.14-2.85 0-5.17-1.66-5.17-3.69 0-2.04 2.32-3.7 5.17-3.7 1.24 0 3.18.7 4.97 1.49-1.4-5.5-3.38-15.24-3.38-26.35-.01-17.18 4.73-31.1 4.73-31.1zm-18.99 71.31c-1.23.48-2.33 1.34-3.06 2.43-.74 1.09-1.14 2.34-1.3 3.53-.08.6-.11 1.18-.11 1.75.01.28.01.57.04.83.01.12.02.22.03.35 0 0 .02.33.04.48l.01.08c.31 2.14 1.46 3.98 3.02 5.14 1.6 1.15 3.4 1.68 5.21 1.67 3.55-.01 7.26-2.48 8.04-6.91a.84.84 0 0 0 .04-.18l.03-.2.04-.41c.02-.27.03-.54.03-.82-.02-.55-.09-1.11-.21-1.67-.27-1.1-.75-2.22-1.48-3.18a8.74 8.74 0 0 0-6.52-3.48c-1.24-.09-2.63.11-3.85.59zm28.23-.01a6.781 6.781 0 0 0-3.06 2.43c-.74 1.09-1.14 2.34-1.3 3.53-.08.6-.11 1.19-.1 1.75.01.29.01.57.03.84.02.12.02.21.03.35 0 0 .03.32.04.48l.02.07C5.28-86 6.44-84.16 7.99-83a8.76 8.76 0 0 0 5.22 1.67c1.81-.02 3.58-.63 5.08-1.82 1.46-1.19 2.62-2.94 2.97-5.07.38-2.11-.1-4.53-1.57-6.49-1.45-1.95-3.85-3.33-6.48-3.48-1.31-.09-2.65.12-3.89.59zM-.78-83.49c-.09.36-.17.71-.28 1.05-.63 1.89-1.66 3.66-3.02 5.17l-1.72 1.6c.2-.1.3-.14.25-.11 1.76-.86 4.12 5.13 5.24 9.32.17-.53.26-.82.26-.82s.1.29.27.83c.05-.02.11-.05.16-.07.89-3.34 2.5-7.77 4.02-8.99-.73-.57-1.41-1.2-2-1.9-1.55-1.76-2.61-3.88-3.18-6.08zm0 0"/></symbol><symbol id="roman-minutehand" viewBox="0 0 237 281"><path d="M.83-269.09c.02.07.03.15.03.23v10.75c.97 3.86 2.3 10.52 2.3 18.09 0 7.73-1.38 14.5-2.35 18.32 1.25-.55 2.6-1.03 3.46-1.04 1.99 0 3.59 1.15 3.6 2.57 0 1.42-1.61 2.57-3.6 2.57-.75 0-1.86-.37-2.96-.83 1.14 2.37 2.75 5.1 4.39 3.57.99-.84 3.56-3.14 4.51-5.18 1.16-2.07.71-3.88.5-4.26-1.64-1.4 5.11 1.76 4.46 1.32.02.04.03.03.03.03 1.73.19 1.47 2.04-2.14 4.73-1.85 1.5-4.86 3.28-6.97 4.46.92-.35 1.9-.57 2.9-.62a9.69 9.69 0 0 1 6.64 2.19 9.756 9.756 0 0 1 3.53 6.69l.03.39v.55c0 .35-.02.68-.06 1.02-.07.67-.21 1.35-.43 2.01-.43 1.31-1.15 2.54-2.09 3.58-.95 1.05-2.12 1.9-3.43 2.49-.65.29-1.35.5-2.05.65-.35.08-.7.13-1.06.17l-.54.04-.61.01s-.28-.01-.36-.01c-.03 0-.62-.05-.62-.05l-.21-.03c.38.22.6.34.81.47 1.64.97 3.35 2.07 4.56 3.05 3.61 2.69 3.82 4.56 2.08 4.78.03-.02.02-.04.02-.04.63-.4-6.05 2.74-4.42 1.29.21-.4.64-2.23-.55-4.3-.4-.84-1.07-1.71-1.79-2.51-1.04-1.16-2.2-2.17-2.8-2.67-1.63-1.51-3.2 1.22-4.33 3.6 1.07-.44 2.14-.79 2.87-.79 1.99 0 3.6 1.15 3.6 2.57s-1.61 2.57-3.59 2.57c-.87 0-2.21-.49-3.46-1.04.97 3.82 2.35 10.6 2.36 18.32 0 4.93-.56 19.16-1.21 34.17.18 6.73.33 13.45.46 20.17l.28 19.54.15 19.54a33629.076 33629.076 0 0 0 .03 19.53l-.05 9.77c-.01 3.26-.04 6.51-.12 9.77-.23 13.02-.62 26.05-1.58 39.07-.02.34-.2.63-.45.82H-.73a1.15 1.15 0 0 1-.45-.82c-.96-13.02-1.36-26.04-1.6-39.07-.08-3.26-.11-6.51-.13-9.77l-.05-9.77.02-19.53.14-19.54.27-19.54c.1-5.8.23-11.6.38-17.4-.72-16-1.35-31.71-1.35-36.94 0-7.73 1.37-14.5 2.35-18.32-1.25.55-2.6 1.04-3.46 1.04-1.99 0-3.6-1.15-3.6-2.57 0-1.41 1.61-2.56 3.6-2.56.75 0 1.86.36 2.96.82-1.14-2.37-2.75-5.1-4.39-3.56-.99.83-3.56 3.13-4.51 5.17-1.16 2.07-.71 3.88-.5 4.26 1.63 1.4-5.11-1.76-4.46-1.32-.02-.04-.03-.02-.03-.02-1.73-.2-1.47-2.05 2.14-4.74 1.59-1.29 4.05-2.79 6.05-3.94a9.94 9.94 0 0 1-3.28.54c-2.87.01-5.72-1.32-7.51-3.45-1.84-2.1-2.74-4.9-2.52-7.51 0-.06.05-.45.05-.45.03-.16.05-.35.08-.52.07-.33.15-.64.25-.95.2-.62.48-1.2.82-1.74.68-1.08 1.57-1.96 2.51-2.66.95-.7 1.94-1.28 2.99-1.73 1.04-.46 2.17-.72 3.33-.79 2.3-.12 4.73.62 6.63 2.2 1.54 1.24 2.71 3.05 3.25 5.1.03-.13.06-.26.1-.39.2-.62.48-1.2.82-1.74.68-1.08 1.57-1.95 2.51-2.66.3-.22.62-.41.93-.61-1.21.36-2.79-3.66-3.55-6.5-.12.37-.19.58-.19.58s-.07-.21-.18-.58l-.11.05c-.78 2.91-2.34 7.02-3.58 6.41.23.17-6.31-3.18-9.44-5.72-3.61-2.68-3.82-4.56-2.08-4.78-.03.03-.02.04-.02.04-.63.4 6.05-2.74 4.42-1.29-.21.41-.64 2.24.55 4.31.98 2.05 3.58 4.34 4.59 5.17 1.62 1.51 3.2-1.22 4.33-3.6-1.07.44-2.14.79-2.88.79-1.98 0-3.59-1.15-3.59-2.56 0-1.42 1.61-2.57 3.59-2.57.87 0 2.21.48 3.46 1.03-.97-3.82-2.35-10.6-2.36-18.32 0-7.58 1.32-14.23 2.29-18.09v-10.75a.997.997 0 0 1 1.97-.23zm5.47 57.02c-.86.34-1.62.94-2.13 1.69-.52.76-.79 1.63-.91 2.45-.05.42-.07.83-.07 1.22.01.2.01.4.02.58.02.08.02.15.03.24 0 0 .01.23.02.34l.01.05a5.402 5.402 0 0 0 2.1 3.57c.55.4 1.15.71 1.76.89.3.1.61.17.92.21l.47.05.17.01h.14c.08.01.17.01.17.01.12-.01.24-.01.24-.01l.23-.02c.16-.02.31-.03.47-.06.31-.05.61-.14.91-.24.59-.2 1.16-.52 1.68-.94.51-.41.96-.92 1.32-1.52.18-.29.34-.61.46-.95.06-.16.12-.34.16-.51l.07-.22s.03-.23.05-.34l.04-.26.03-.29c.01-.18.02-.38.02-.57a5.868 5.868 0 0 0-1.18-3.37c-1-1.36-2.68-2.32-4.51-2.42-.91-.06-1.83.08-2.69.41zm-19.63.01c-.86.33-1.62.93-2.13 1.69-.51.75-.79 1.62-.9 2.45-.06.42-.08.82-.08 1.21.01.2.01.4.03.59.01.08.01.15.02.24 0 0 .02.23.02.33l.02.06a5.414 5.414 0 0 0 2.09 3.57c1.12.8 2.37 1.17 3.63 1.16 1.26-.01 2.49-.43 3.53-1.26a5.744 5.744 0 0 0 2.06-3.53c.27-1.47-.06-3.15-1.09-4.51-1-1.35-2.67-2.31-4.5-2.42-.91-.06-1.84.09-2.7.42zm12.6 9.8c-.06.25-.12.49-.2.73-.43 1.31-1.14 2.54-2.09 3.59-.32.36-.68.69-1.05 1-.01.05.06.02.03.04 1.22-.6 2.86 3.57 3.64 6.48.11-.36.19-.58.19-.58s.06.21.18.59c.04-.02.08-.04.11-.06.62-2.33 1.75-5.41 2.81-6.24-.51-.4-.99-.84-1.41-1.33-1.07-1.22-1.81-2.69-2.21-4.22zm0 0"/></symbol><symbol id="roman-secondhand" viewBox="0 0 240 360"><path d="M-.18-291.2c-.11 0-.23.01-.34.02-.49.04-.97.17-1.41.38-.28.13-.55.3-.79.5-.62.5-1.06 1.16-1.37 1.83-.15.33-.26.67-.36.99-.04.17-.09.34-.12.5-.01.07-.03.13-.04.21l-.06.28c-.2 1.35.16 2.61.86 3.56.36.47.78.86 1.25 1.17.23.16.47.3.72.41l.37.15.14.06.26.08c.1.02.2.05.2.05l.2.04c.14.03.27.05.41.07l.09.01c.24.03.48.02.73.01.55-.02 1.1-.14 1.63-.36.54-.22 1.04-.54 1.49-.95.22-.2.43-.42.62-.67.09-.13.18-.26.26-.39l.11-.17s.08-.19.12-.27c.06-.1.11-.21.11-.21l.09-.23c.06-.16.12-.31.16-.48.09-.32.14-.66.16-1 .04-.69-.05-1.42-.31-2.11-.5-1.38-1.66-2.6-3.16-3.14-.64-.24-1.33-.35-2.02-.34zm.68-35.55s0 .49.01.75c0 .3.01.61.01.92.09 5.44.17 10.89.26 16.34.04 3.18.09 6.36.14 9.54.02 1.3.03 5.15.04 6.85.42.02.84.08 1.26.18 1.61.38 3.13 1.39 4.12 2.86 1 1.48 1.46 3.37 1.06 5.34l-.06.27-.1.38c-.08.24-.16.46-.25.69-.19.45-.43.89-.71 1.3-.57.81-1.31 1.51-2.18 2.04-.86.53-1.85.87-2.87 1.01l-1.4.04-.14-.01a6.48 6.48 0 0 1-.77-.1l-.38-.08-.42-.12-.27-.09-.4-.15c-.24-.11-.47-.21-.7-.34-.45-.26-.87-.55-1.26-.89a7.106 7.106 0 0 1-1.79-2.43c-.84-1.82-.88-3.93-.2-5.69.01-.04.13-.29.13-.29.05-.11.1-.24.16-.35.12-.21.23-.41.37-.6.26-.39.57-.73.92-1.03.17-.15.34-.29.53-.42.55-.39 1.14-.68 1.74-.9.62-.23 1.24-.38 1.87-.49-.03-1.34.09-2.73.11-4.07.02-1.59.05-3.18.07-4.77.05-3 .09-6 .13-9 .08-5.31.17-10.63.25-15.95 0-.25.01-.74.01-.74H.5zm.63 90.32c.05 3.25.1 6.58.14 9.98a5.023 5.023 0 0 0 2.14-1.16c.23-.21.44-.43.63-.68.09-.13.18-.26.26-.39l.11-.17.12-.27c.05-.1.11-.21.11-.21l.09-.23c.06-.15.11-.31.16-.47.08-.33.14-.67.16-1.01.04-.69-.05-1.42-.31-2.11a5.318 5.318 0 0 0-3.61-3.28zm-1.95-.18c-.79.08-1.56.39-2.16.88-.62.51-1.07 1.17-1.37 1.83-.15.33-.26.67-.36 1-.04.16-.09.33-.12.49-.01.07-.03.13-.05.21l-.06.28c-.19 1.35.16 2.61.87 3.56.36.47.78.87 1.25 1.17.23.16.47.3.72.41l.37.16.14.05s.17.05.26.08c.1.02.2.05.2.05s.1.02.16.03c.05-3.47.1-6.88.15-10.2zM.5-278.09c0-.01.01.49.01.74.17 10.19.37 23.94.6 39.6.28.03.57.08.84.15 1.62.39 3.14 1.39 4.13 2.87a7.007 7.007 0 0 1 1.06 5.33l-.06.27-.1.38c-.08.24-.16.46-.25.69-.2.45-.43.89-.71 1.3-.57.81-1.32 1.51-2.18 2.04-.77.47-1.63.8-2.53.96.96 66.36 2.15 155.61 2.15 162.77 0 7.19-.45 36.48-.41 40.12.06 4.82.15 9.64.15 14.46C3.2 5.53-.09 15.2-.09 15.2s-3.3-9.68-3.3-21.61c0-4.82.09-9.64.15-14.45.03-2.75.12-32.96.11-40.13 0-7.16 1.18-96.37 2.12-162.73-.11-.02-.22-.03-.33-.05l-.38-.09-.42-.12-.27-.09-.4-.15c-.25-.1-.48-.21-.7-.34-.45-.25-.87-.55-1.26-.88a7.24 7.24 0 0 1-1.79-2.44c-.84-1.81-.88-3.93-.2-5.69.01-.03.13-.29.13-.29.05-.11.1-.23.16-.35.11-.21.23-.41.37-.6.26-.38.57-.73.92-1.03.68-.61 1.48-1.03 2.27-1.32.62-.22 1.24-.37 1.87-.48-.03-1.34.09-2.74.11-4.07.02-1.59.05-3.18.07-4.77.04-3 .09-6.01.13-9 .08-5.32.17-10.64.25-15.95 0-.26.01-.74.01-.74h.17c.03-1.82.06-3.54.08-5.18.01-.25.02-.74.02-.74.17 0 .7-.01.7-.01v.01zm0 0"/></symbol><symbol id="rounded-HourHand" viewBox="0 0 100 100"><path d="M3-43.5v37.73A6.507 6.507 0 0 1 6.5 0a6.5 6.5 0 1 1-13 0c0-2.51 1.42-4.68 3.5-5.77V-43.5c0-1.66 1.34-3 3-3s3 1.34 3 3zm0 0"/></symbol><symbol id="rounded-MinuteHand" viewBox="0 0 100 100"><path d="M3-79.5v73.73A6.507 6.507 0 0 1 6.5 0a6.5 6.5 0 1 1-13 0c0-2.51 1.42-4.68 3.5-5.77V-79.5c0-1.66 1.34-3 3-3s3 1.34 3 3zm0 0"/></symbol></svg>